# xmcd
# Copyright (C) 1995-1998 Ti Kan
#
# Track frame offsets:
#       150
#       14905
#       27422
#       40596
#       53416
#       75279
#
# Disc length: 1840 seconds
#
# Revision: 0
# Processed by: cddbd v1.5.2PL0 Copyright (c) Steve Scherf et al.
# Submitted via: CD-Import v1.0
#
DISCID=3a072e06
DTITLE=Jello Biafra With Doa - Last Scream Of The Missing Neighbors
DYEAR=1989
DGENRE=
TTITLE0=That's Progress
TTITLE1=Attack Of The Peacekeepers
TTITLE2=Wish I Was In El Salvador
TTITLE3=Power Is Boring
TTITLE4=We Gotta Get Out Of This Place
TTITLE5=Full Metal Jackoff
EXTD=
EXTT0=
EXTT1=
EXTT2=
EXTT3=
EXTT4=
EXTT5=
PLAYORDER=
